# xmcd
#
# Track frame offsets: 
#        150
#        19528
#        35698
#        51900
#        67026
#        84532
#        101227
#        115986
#        132792
#        149269
#        165238
#        178082
#
# Disc length: 2568 seconds
#
# Revision: 4
# Processed by: cddbd v1.5.2PL0 Copyright (c) Steve Scherf et al.
# Submitted via: ExactAudioCopy v1.0b3
#
DISCID=a40a060c
DTITLE=Peter Fox - Stadtaffe
DYEAR=2009
DGENRE=Funk
TTITLE0=Alles Neu
TTITLE1=Schwarz Zu Blau
TTITLE2=Haus Am See
TTITLE3=Kopf Verloren
TTITLE4=Das Zweite Gesicht
TTITLE5=Der Letzte Tag
TTITLE6=Ich Deine Steine, Du Steine
TTITLE7=Lok Auf 2 Beinen
TTITLE8=Stadtaffe
TTITLE9=Fieber
TTITLE10=Schuettel Deinen Speck
TTITLE11=Zucker (Feat. Vanessa Mason)
EXTD=YEAR: 2009
EXTT0=
EXTT1=
EXTT2=
EXTT3=
EXTT4=
EXTT5=
EXTT6=
EXTT7=
EXTT8=
EXTT9=
EXTT10=
EXTT11=
PLAYORDER=
